<svg xmlns="http://www.w3.org/2000/svg" width="212.16" height="47.12" viewBox="0 0 212.16 47.12"><path d="M37.71,33.56h-.05l0,0ZM25.06,38.27l-.4-1.3a2.73,2.73,0,0,1-.21.3A2.36,2.36,0,0,0,25.06,38.27ZM37,23.21l-.51-.37a.37.37,0,0,0,.11.23A1.9,1.9,0,0,1,37,23.21Zm-1.32-.79c-.07,0,0,.17-.06.26C35.78,22.64,36.49,23.23,35.65,22.42ZM25.35,36.36c.25.36.47.16.68.48-.18-.42,0-.35-.68-1,0,.06-.07.12-.11.17C25.43,36.23,25.67,36.47,25.35,36.36ZM35.59,22.68a0,0,0,0,0,0,.05A.05.05,0,0,0,35.59,22.68ZM20.37,53.48l.07.2C20.54,53.76,20.59,53.77,20.37,53.48ZM26,36.84a2.12,2.12,0,0,0,.13.27A1,1,0,0,0,26,36.84ZM19.69,53.45c-.13.38.54,1,.67.61C20.09,53.93,19.87,53.9,19.69,53.45Zm.57-.9a2.17,2.17,0,0,0-1-1.2C19.58,51.79,19.94,52,20.26,52.55ZM35.48,23a2.23,2.23,0,0,0-.41-.29,3.73,3.73,0,0,1,.28.31ZM20,51.3l.13.11A.56.56,0,0,0,20,51.3Zm0,0a16.28,16.28,0,0,0-1.34-1.09c.06.1.26.34.13.35s-.26-.26-.44-.44a1.15,1.15,0,0,0,.64.68L19,50.71A4.19,4.19,0,0,1,20,51.3Zm-2.42,2.43-.23-.18.65.81c.09-.32-.13-1.08.27-1C17.32,52.56,18.11,53.88,17.62,53.73ZM18.25,50a.87.87,0,0,1,.14.12C18.34,50,18.3,50,18.25,50Zm-.83,2.39-.36-.17.22.4C17.17,52.42,17.71,52.67,17.42,52.39Zm2,0,0,.06.46.94Zm-2.26,1.5.19.45.19.24Zm.38,2.7c-.11,0,.44.53.53.63C18.06,57,17.41,56.44,17.55,56.58ZM38.23,22.94a.85.85,0,0,0-.17-.36c.62.15-.37-1.39.1-1.27.14.23.66.46.9.66l-.23-.89a4.83,4.83,0,0,0,1.08,1.43c.05-.15-.18-.49-.18-.62a1.82,1.82,0,0,0,.56.63l-.5-1.2a.31.31,0,0,0-.24-.06c.08-.09,0-.6.49-.3.18.21.32.44.51.65-.66-.46-.24.08.09.52.15-.32.19.08.66.33.15-.19-.46-.94-.93-1.34.38,0,.57.09.25-.63l.65.74,0-.4.71,1c.81.14-1.13-1.28-.37-1.25l.61.62c-.09-.39-1.07-1.49-.22-.85-.23-.52-1.1-.64-.9-1.1a2.27,2.27,0,0,0,.95.4c-.18-.39-.81-.65-.79-.5.21-.79,2.39,1.81,2,.55-.59-.29-1-1.33-1.39-.95-.19-.54,1.22.56.74-.3l.66.91c.08-.05-.13-.41-.19-.54l.58.63c-.83-1.3.91.09-.34-1.45,1,1.2.11-.23.62.12.58,1-.54.5.43,1.54.39.23,0-.35.35-.13a4.12,4.12,0,0,0,.46.79c.84.3-.17-1.06-.26-1.49l-.07.53c-1-1,0-.31-.74-1.19.69.4,0-.52.48-.3,0,0,.06.13,0,.15.3-.35,2,1.22,2.19,1.12s0-.8-.56-1.14c-.18-.39-.14.74-1.25-.77,1.69,1.34-.18-1,1.25-.32.36.72,1,.75,1.2,1.32.07-.32-.15-.55-.49-1.07l.53.42c-.8-1.33-.87-1-1-2,.24.51.83.54,1.07,1,.13-.07.1-.32-.11-.68l.06.08c.14-.64.9.28.73-.61l-.31-.25c-.31-1.24.77-1.33.9-2.17l-.37-.06c.12,0-.12-.76.43-.49,0,.06.08.24,0,.23.32.32.85.74,1,.7l-.44-.53.43.33c.18-.17-.75-.65-.57-.82,1.49,1.31.94-.57,2.31.51-.88-1.14-.47.19-1.25-.86.2.09.41.26.61.23l-.64-.57c.87-.19,1.59.13,1.93-.48l.11.15c.4.07.38-.13-.06-.74.31.25.34.52.65.71-1.24-1.86,1.72.55.82-.73,3.51-1.46,5.16,1,3.61,3,.51.66-.43.32.29,1.18l-1.22-.46c.31.29.7.81.86.85-.08.11-.12.24.44.55-3-1.15-1.92,1.81-3.9,1.61,0,.14.33.39.54.56-.94-.62.24.57.26.77l-1.36-.89a4.26,4.26,0,0,0,.87.94c-.24.69-1.77,0-1.48,1.08-.52-.28-.87-.94-1.17-.92,1.37.95.09,1,1,1.69-1.37-1.08-.82.31-2.45-1.49-.28.09.57.89.78,1-.29.16-.47.32-.11,1.05-.52-.29-.57,1.42-2,.32,1,.71.42.45.65.94l.84.63-.36.21c0,.13,0,.11-.1,0s-.41-.44-.72-.51c-.24.15.15.57.42,1.06l.14.08-.06.21c-.12.07-.39-1.09-1.08-1.15.2.21,1,1.38.37.93.2-.13-.33-.62-.61-.78l-.28.17,1,.87s-.1.07-.15.11a2.31,2.31,0,0,0-1.08-.45,3.13,3.13,0,0,0-.52-.22,2.16,2.16,0,0,0-.87-.27l-.19,0a2,2,0,0,0-.42-.07,1.93,1.93,0,0,0-.53-.07,2.46,2.46,0,0,0-.45-.11l-1.22-.18a2.14,2.14,0,0,0-.44-.08l-1-.1a2.55,2.55,0,0,0-.86-.15,2.31,2.31,0,0,0-1.24.35l-.25.15a4.86,4.86,0,0,0-.64.48,2.39,2.39,0,0,0-1,.67l0,0-.28-.32a2.13,2.13,0,0,0-.31-.29C37.13,22.65,37.9,23,38.23,22.94Zm11.11-.07.21.11C49.4,22.77,49.27,22.58,49.34,22.87ZM57.4,15a.28.28,0,0,1-.09.17C57.37,15.17,57.41,15.13,57.4,15Zm-8.58-2.57a.26.26,0,0,1,.09.05C48.84,12.38,48.83,12.38,48.82,12.41Zm-23,28.9L27,42.43h0l-1.08-1.17ZM48.39,12.9h0ZM20.57,54.11l-.13-.43c-.17-.13-.46-.42,0,.17C20.22,53.57,20.45,53.86,20.57,54.11ZM44.71,19.54l.07,0C44.62,19.28,44.63,19.34,44.71,19.54Zm14-4.8-.66-.84c0,.07,0,.21-.19,0Zm-.16.44.41.13L58.47,15ZM25,37a1.8,1.8,0,0,1-.2-.18.61.61,0,0,1-.07.14c.87.86,2.11,2.7,1.66,2.85a21.57,21.57,0,0,1-1.75-1.88c.26.34.28.86,0,.67L24.3,38c-.48-.15.86,1.43-.16.8a5.69,5.69,0,0,1-.79-.48l-.06.06,0,.05c.76.61,2.47,2.27,3.65,3.5a1.83,1.83,0,0,1,.19-.6,2.27,2.27,0,0,1,.51-1.07c-.82-1.14-1.65-2.37-2.06-3C25.17,37,25.1,36.76,25,37Zm3.93-.24a12.24,12.24,0,0,0-1.78-1.09c.27.12,1.64,1.68,1.48,1.75-.2-.24-1.44-1.44-1.55-1.64l1.08,1.66a10.12,10.12,0,0,0-1.61-1.5c.31.25-.27.22-.21.44l.45.22c-.54.11,1.68,2.36,1.28,2.61-.25-.34-1.71-1.94-2.05-1.95.35.45,1.28,1.58,2.08,2.66a1.9,1.9,0,0,1,.33-.22l.51-.27.21-.15,0,0a2.3,2.3,0,0,1,.66-.5l.12-.06a2.18,2.18,0,0,1,.21-.22l.1-.09a2.1,2.1,0,0,1,.22-.3,29.66,29.66,0,0,1-2.52-2.61,2.34,2.34,0,0,1-.53-.08A8.53,8.53,0,0,1,28.88,36.74ZM38,22.46l-.48-.65C37.35,22,37.69,22.17,38,22.46Zm.08.12s0,0,0,0l-.1-.12ZM31.87,33.7l0-.11s0-.06,0-.1l-.05,0,0,0c0,.07.07.13.1.19S31.86,33.72,31.87,33.7Zm6-.9v.07h0A.15.15,0,0,1,37.85,32.8Zm-16,10.9a4.27,4.27,0,0,1,.56.41l-.78-.8Zm6.6-8.3-.25,0,1.2,1.11Zm.25-.06,1.89,2.58.11-.19a2.3,2.3,0,0,1,.41-.75,2,2,0,0,1,.11-.32c0-.08,0-.17,0-.26a3.23,3.23,0,0,1,.23-1.11l.1-.22v0a2.28,2.28,0,0,1,.09-.63L31.22,34l-.48.32-.35.26a2.49,2.49,0,0,1-.73.36l-.24.07a2.44,2.44,0,0,1-.41.24,2.31,2.31,0,0,0,.58,1c-.08-.07-.46-.49-.82-.88ZM19.8,48c.06.1,0,0,0,.15l.29.28C20.18,48.27,20,48,19.8,48Zm1.82-5.59c.2.24.2.61.54.62C22,42.74,21.8,42.08,21.62,42.36ZM20.46,50.6l0-.53-.6-.35.29.28C19.88,50,20.26,50.36,20.46,50.6Zm1.13-3.06L21.14,47l-.22,0Zm-.45-.94.16-.07-.34,0Zm2.07,5.21a3.61,3.61,0,0,0-.41-.19C23,51.76,23.34,52,23.21,51.81Zm1.65-1.31s0,0,0,0Zm-1.1.07.49.52-.22-.4Zm1.33-1.72c-.18-.08.63.7.39.51C26.08,50.08,25,48.23,25.09,48.85ZM26.85,47a.84.84,0,0,0,.55.11C27,46.94,26.42,46.55,26.85,47ZM23.51,51l.54.62-.67-1Zm1-.84a2.67,2.67,0,0,1,.34.34v-.27C24.81,50.29,24.65,50.18,24.52,50.12Zm-3.84,1.6.09.25h.11Zm1.48-3c.27.3.09,0,.08-.11C22.23,48.63,22.21,48.68,22.16,48.69Zm.61,4.7.36.54-.52-.83Zm.29-.45c.31.44.71.55.87.85a2.37,2.37,0,0,0-.41-.94C23.6,53.09,23.47,53.14,23.06,52.94Zm-.8-4.42c.69.76.56.4.44,0-.53-.51-.45-.24-.46,0Zm1.59-9c-.15-.15-.3-.26-.41-.23A1.56,1.56,0,0,1,23.85,39.57Zm5.61,5.63.63.66c-.47,0,.06,1.56-1.41.36.46.58-.47.18-.44.49l-.52-.47c-.34,0-.27.3-.23.56-1.38-.69-.7.67-1.08.91l-.14-.14,0,.68c-.36-.54.25.37,0,.34.14.35-.15.38-.59.18l-.22.17c-.11-.56-.73-.7-1.31-1.27l.33.6c-.33-.23-.36-.54-.58-.57.22.4-.05.63.46,1.31a2.61,2.61,0,0,0,.47.32s0,0,0,0l0,0h0a2.77,2.77,0,0,0,.19.26c-.29,0,0,.21.27.47-1.07-.72-.57,0-1.75-.93,1.36,1-.41.43.83,1.44-1-.77-.14,0-1-.64.43.06-.2-1-.44-1.52L22.33,48c-.91-1.14.72,0,.46-.4.18.3-.19.2-.42,0l.81.75c.53.1.09-.69-.14-1.23-.4-.12-.29-.65-.95-1.11v.21a2.09,2.09,0,0,1-.62-.87c.92.21,1.09-1,1.83-.46-.27-.13-.24.18-.08.48l.49.16c-.11.16-.9-.43-.85,0a15.19,15.19,0,0,0,1.89,1.83c1.15.39-1-1.62-.31-1.9-.11-.2.7.91.68.39A8.56,8.56,0,0,0,23,42.63c.19.45.55,1.36-.26.61a3.23,3.23,0,0,0-.64-1.39c1,.77,0,.52.94,1.09.07-.11-.18-.45-.29-.65a3.05,3.05,0,0,0,.94.74c.31-.29.87-.07,1.27-.31a5.4,5.4,0,0,1,.68.6,8.67,8.67,0,0,0-1.83-2.5c.15-.22.58.2.49-.21-1.05-.56.18.09-.65-.82.05-.27.47.37.74.5a4.14,4.14,0,0,0-.51-.72c.75.57,1.51,1.93,2.39,2.59.19.13.45.28.72.43a2.37,2.37,0,0,0,.53,1.24l.18.22a2.35,2.35,0,0,0,1.81.84h.13A.39.39,0,0,1,29.46,45.2Zm-3.94,3s0,0,0,0C25.73,48.28,25.86,48.34,25.52,48.21Zm-.59-5.49h0C24.81,42.63,24.83,42.64,24.93,42.72Zm-2.38,4.61a2.3,2.3,0,0,1,.24.3A2.05,2.05,0,0,0,22.55,47.33Zm1.55-2.41v-.37c-.2-.24-.38-.32-.36-.17A1.25,1.25,0,0,0,24.1,44.92Zm1.11,4.68H25.1C25.18,49.71,25.25,49.76,25.21,49.6Zm-.27-.25a.72.72,0,0,0,.25.08A1.48,1.48,0,0,0,24.94,49.35Zm2.46-2.2c.32.15.56.21.27-.27l-.18-.08C27.51,47,27.52,47.1,27.4,47.15Zm-2,2.23a.16.16,0,0,1-.17,0s.09,0,.1.07Zm-.07.12c0,.11.05.08,0,0Zm-1.77,3.35a2.56,2.56,0,0,0-.28-.56A3.6,3.6,0,0,0,23.52,52.85Zm-2-.26h0C21.48,52.53,21.46,52.51,21.52,52.59Zm-.14.62-.18-.48C21,52.82,21.16,53,21.38,53.21Zm.12.32a1.7,1.7,0,0,1,.69.4c-.18-.21-.55-.48-.81-.72Zm.08-1,0,0,.16-.1Zm0,.07a2.3,2.3,0,0,0,.66.44l-.6-.49Zm-.77,2.29c-.39-.33-.2-.42-.23,0l.11.07A.2.2,0,0,1,20.77,54.87ZM21,52.52,20.77,52l-.27,0A3,3,0,0,1,21,52.52Zm1.21-5.93-.34,0a.56.56,0,0,1,.17.27C22.16,46.76,22.39,46.77,22.2,46.59Zm-.05,5.72s0,0,0,0S22.24,52.38,22.15,52.31Zm-1.5,2.63c-.07.13.36.24,0,0Zm.26-.67.18.46c.24.18.4.11.51.31C21.56,54.73,21.33,54.54,20.91,54.27Zm1.49-2.74a.5.5,0,0,0-.43.1c.16.18.42.53.5.42C22.3,51.74,22.35,51.65,22.4,51.53Zm.36.07h0c-.08-.06-.13-.09-.07-.07v0l-.19-.22c.2,0,.15.13.19.22l.08.09h0V51c-.13,0-.2.08-.27.29a6.36,6.36,0,0,0-1.26-1.5c-.15.22.32.59.45.94.16-.43.22.4.74.5a.51.51,0,0,1,0,.31,1.84,1.84,0,0,1,.4.09ZM22,47.08a.29.29,0,0,0,0-.24C22,46.88,21.93,46.94,22,47.08Zm1.18,3.64-.38.24,0-.09V51a3.13,3.13,0,0,1,.9.48A2.31,2.31,0,0,0,23.19,50.72Zm-1.34.82c-.17,0-.08.14,0,.34a.39.39,0,0,1,.07-.25C21.9,51.54,21.85,51.49,21.85,51.54Zm1.25-.91.09.09h0ZM22,52.22s0,0,0,0S21.9,52.13,22,52.22Zm.16.09a2.92,2.92,0,0,0-.25-.43,1.41,1.41,0,0,0,.07.3Zm-.92-3.47c-.05-.47.35,0,.71.18-.71-.55-.65-1.18-1.62-2.07l.15.51c-.14-.14-.31-.44-.49-.52.49.52.78,1.16.09.77a15.82,15.82,0,0,0,3,2.92,2,2,0,0,1-.56-.89C22.21,49.51,21.56,49.43,21.23,48.84Z" transform="translate(-14.06 -10.1)" fill="#39b54a"/><path d="M21.56,20.89v0Zm2.08-9c.07,0,.12,0,.17.08S23.79,11.85,23.64,11.86Zm-2.57,8.57a.9.9,0,0,1,.05-.09C21,20.41,21,20.43,21.07,20.43Zm1.53-9.07.8-.86-.84.66C22.63,11.16,22.77,11.15,22.6,11.36Zm15,23.12,0,0v-.1l0-.11a2.05,2.05,0,0,1,0-.55,2.6,2.6,0,0,1,.16-.47l0-.13a2.46,2.46,0,0,1,0-.28l-.05.31a2.57,2.57,0,0,1-.2.61,2.13,2.13,0,0,1-.14.35,2.18,2.18,0,0,1,0,.57Zm-11-9.81,0,.07.16-.09S26.56,24.7,26.54,24.67ZM24,10.26l-.35.52.22-.12Zm7.89,23.36a1.89,1.89,0,0,0-.45.56,5.61,5.61,0,0,1,.43-.38l0-.1ZM36.19,23a.18.18,0,0,0-.13,0ZM51,47.63c.23-.19.6-.19.62-.54C51.41,47.29,50.74,47.46,51,47.63Zm.35-3.3h0C51.29,44.45,51.3,44.42,51.38,44.33Zm2.2.82h-.37c-.24.2-.32.39-.17.37A1.28,1.28,0,0,0,53.58,45.15Zm-1.22,2.28a4.27,4.27,0,0,1,.41-.56l-.8.78Zm-4.13-2c-.15.14-.26.29-.23.4A1.37,1.37,0,0,1,48.23,45.41ZM45.5,43.22l.27-.13A1.37,1.37,0,0,0,45.5,43.22ZM19.2,15.48c-1.46-3.51,1-5.15,3-3.61.66-.51.32.43,1.18-.29L23,12.8c.29-.31.81-.69.85-.86.11.08.24.12.55-.44-1.15,3,1.81,1.92,1.61,3.91.14,0,.39-.33.56-.54-.62.94.57-.25.77-.27L26.41,16a4,4,0,0,0,.94-.87c.69.24,0,1.77,1.08,1.49-.28.52-.94.87-.92,1.16.95-1.36,1-.09,1.69-1-1.08,1.37.31.82-1.49,2.45.09.29.89-.57,1-.77.16.28.32.46,1.05.11-.29.51,1.43.57.32,2,.71-1,.45-.42.94-.66l.63-.84.21.36c.13,0,.11,0,0,.11s-.44.41-.51.71c.15.24.57-.15,1.06-.42l.08-.14.21.07c.07.12-1.09.38-1.15,1.07.21-.2,1.38-1,.93-.36-.12-.2-.62.33-.78.6l.17.28.87-1c.6.7.62,2,1.38,2.67-.33.32-.33.47-.28.61l-.08,0-.55.35a2.18,2.18,0,0,0-.42.33l0-.05a2.83,2.83,0,0,0-1.06-.83l-.16-.08a2.41,2.41,0,0,0-1-.23,2.29,2.29,0,0,0-1,.25l-.1.05a2.38,2.38,0,0,0-.63.23l-.17.09-1.7.76-.22.13c-.31-.33,1.22-2,1.12-2.17s-.8.05-1.14.56c-.39.17.74.13-.77,1.24,1.34-1.68-1,.18-.32-1.25.72-.36.75-.95,1.32-1.19-.32-.08-.55.14-1.07.48l.42-.53c-1.33.8-1,.87-2,1,.51-.24.54-.83,1-1.06-.07-.14-.32-.1-.68.1l.08-.05c-.64-.15.28-.91-.61-.74l-.25.32c-1.24.3-1.33-.78-2.17-.9l-.06.36c0-.12-.76.12-.49-.43.06,0,.24-.07.23,0,.32-.32.74-.85.7-1l-.53.44.33-.42c-.17-.19-.65.74-.82.56,1.31-1.49-.57-.94.51-2.31-1.14.88.19.48-.86,1.25.09-.2.26-.41.23-.6l-.57.63c-.19-.87.13-1.58-.48-1.93l.15-.11c.07-.4-.13-.38-.74.07.25-.32.52-.34.71-.66C18.07,17.55,20.48,14.59,19.2,15.48Zm12.33,4.43.11-.21C31.44,19.85,31.25,20,31.53,19.91ZM45,43.9c.36-.25.16-.47.48-.68-.45.19-.34-.06-1.14.85C44.26,44.59,45.22,43.32,45,43.9ZM63.7,47.66c-.31,0-.5.27-.76.69l.45-.19C63.57,47.93,63.5,47.76,63.7,47.66Zm-1,1.24c-.13.27-.16.49-.61.67C62.49,49.69,63.1,49,62.72,48.9Zm-3.49-3.41.52-.48-.4.21Zm-.1-1.1h0Zm1.11.81-1,.67.35-.12Zm-2.73-1c-.08.18.7-.63.51-.39C58.74,43.17,56.89,44.24,57.51,44.16Zm2.87,4.42.25-.1v-.1Zm.79-.91,0,0-.1-.15A1.51,1.51,0,0,1,61.17,47.67Zm0,0,.05.07a2.51,2.51,0,0,0,.44-.67Zm-.53,1.11a2.7,2.7,0,0,1,.52-.49l-.55.21Zm.59-1h0C61.19,47.78,61.17,47.8,61.25,47.73Zm1.52,1-.43.14c-.13.16-.42.45.17,0C62.23,49,62.52,48.81,62.77,48.68Zm-.9-.81-.48.19C61.48,48.23,61.66,48.09,61.87,47.87Zm-2.74-3.48h-.28c.1,0,0,.2-.07.34A1.89,1.89,0,0,1,59.13,44.39Zm2,5.47L62,49.4l-1,.42Zm.95-3.38.54-.36-.83.53Zm.54.58c-.21.19-.48.56-.72.81l.32-.12A1.76,1.76,0,0,1,62.59,47.06ZM61,46c.13-.05.33-.17.55-.29A2.11,2.11,0,0,0,61,46Zm.64.18c.44-.31.55-.71.85-.87-.17,0-.58.19-.94.4C61.75,45.65,61.8,45.78,61.6,46.2ZM60,50a10.06,10.06,0,0,1,1.2-1A2.19,2.19,0,0,0,60,50Zm-16.39-8.4,0,0v0Zm18.52,7.29.2-.06C62.42,48.72,62.43,48.67,62.14,48.88Zm-1.85-1.59c.18-.16.53-.43.42-.5-.31.17-.4.11-.52.07A.52.52,0,0,0,60.29,47.29Zm.68-.18a2.77,2.77,0,0,0-.43.24.76.76,0,0,0,.3-.07A1.55,1.55,0,0,1,61,47.11Zm-.09.15,0,0S60.79,47.36,60.88,47.26Zm-.68.14c0,.17.14.08.34,0a.34.34,0,0,1-.25-.06C60.2,47.36,60.15,47.41,60.2,47.4Zm.77-.29,0,0C61.1,47,61,47,61,47.11Zm-2.57-.39c-.23.32-.31,1-.9,1.3-.47.06,0-.34.18-.71-.55.71-1.18.66-2.07,1.62l.51-.15c-.14.15-.44.31-.52.49.52-.49,1.16-.78.77-.09a15.71,15.71,0,0,0,2.92-3A2.2,2.2,0,0,1,58.4,46.72Zm-2.9.5c0,.06.1.1.24,0A.28.28,0,0,0,55.5,47.22Zm5-1.18a3.7,3.7,0,0,0-.19.42C60.42,46.25,60.63,45.92,60.47,46Zm-1.1,0a1,1,0,0,0-.08.11l.09-.09Zm-2.76,3.4c.1-.05,0,0,.15,0l.29-.29C56.93,49.07,56.64,49.24,56.61,49.45ZM60,49.21l.11-.13A.56.56,0,0,0,60,49.21Zm3,2.69.24-.2-.69.38Zm-3.73-3.11-.53,0-.35.6.28-.29C58.69,49.37,59,49,59.26,48.79Zm.7.42c-.41.46-.71.83-1.09,1.34.1,0,.34-.25.36-.13s-.27.26-.45.45a1.2,1.2,0,0,0,.68-.65l-.09.06A4.08,4.08,0,0,1,60,49.21ZM43,41.76c.8-.58.77-.44.7-.22l1.53-1.66ZM61.05,51.83l-.17.36.4-.22C61.08,52.08,61.33,51.54,61.05,51.83ZM59.53,46.5h.12a3.13,3.13,0,0,1,.48-.9,2.31,2.31,0,0,0-.75.47l.24.37Zm2.68,5.36.81-.65c-.32-.09-1.08.13-1-.27-.83,1,.49.2.34.69Zm-2.27-5.08A6.13,6.13,0,0,0,58.44,48c.22.14.59-.33.94-.46-.43-.16.4-.21.5-.74a.5.5,0,0,1,.31,0,1.73,1.73,0,0,1,.09-.4l0,0h0c-.06.09-.09.13-.07.08h0a1.24,1.24,0,0,1-.22.19c0-.19.13-.15.22-.19l.09-.08h-.6C59.64,46.64,59.73,46.7,59.94,46.78ZM58.66,51a.77.77,0,0,1,.12-.13C58.69,50.91,58.64,51,58.66,51ZM51.21,37.66c.37-.57,1-1.41.42-.84l-.52.58C51.28,37.38,51.28,37.5,51.21,37.66Zm7,6.38c0,.05,0,.08,0,.11S58.42,44,58.26,44ZM58.17,44c.1,0,.07-.05,0,0ZM63.6,48.6c.13.08.24-.36,0,0Zm1.64,3.1c0,.11.53-.44.64-.53C65.65,51.19,65.1,51.84,65.24,51.7ZM58,43.9a.15.15,0,0,1,.05.16.29.29,0,0,1,.08-.1ZM55.7,42.41a.87.87,0,0,0,.11-.56C55.6,42.27,55.21,42.84,55.7,42.41Zm.11-.56c.15-.32.21-.55-.27-.26,0,.07,0,.11-.08.17C55.62,41.74,55.76,41.73,55.81,41.85ZM58,44.32a.59.59,0,0,0,.08-.26A1.37,1.37,0,0,0,58,44.32Zm-2.41,4,.6-.67-.57.45Zm-.35-1.28,0,.34a.56.56,0,0,1,.27-.17C55.42,47.1,55.43,46.86,55.25,47.05ZM56,46.7a2,2,0,0,1,.3-.23A1.4,1.4,0,0,0,56,46.7Zm1.36.4c.3-.28,0-.1-.11-.08A.1.1,0,0,1,57.35,47.1Zm-2.17,1.2.08-.18L55.19,48Zm8.35.19c-.33.38-.42.19,0,.22l.07-.11A.17.17,0,0,1,63.53,48.49Zm-6.3-1.93c-.51.52-.24.44,0,.45v0C57.94,46.3,57.58,46.43,57.23,46.56Zm-2.55.6.22,0a2.26,2.26,0,0,1-.88.61c.21-.92-1-1.08-.46-1.82-.13.27.18.23.48.07l.16-.49c.16.11-.43.91,0,.85a14.38,14.38,0,0,0,1.83-1.88c.39-1.16-1.62,1-1.9.31-.2.11.91-.71.39-.69a8.56,8.56,0,0,0-3.27,2.14c.45-.18,1.36-.55.61.27a3.2,3.2,0,0,0-1.39.63c.77-1,.52,0,1.09-.94-.11-.07-.45.18-.64.29a3,3,0,0,0,.73-.94c-.29-.3-.07-.87-.31-1.26a6.35,6.35,0,0,1,.6-.68,8.62,8.62,0,0,0-2.5,1.82c-.22-.15.2-.58-.21-.49-.56,1.05.09-.18-.82.65-.26-.05.37-.47.5-.74a4.32,4.32,0,0,0-.72.52c.57-.75,1.93-1.52,2.59-2.39a15.59,15.59,0,0,0,1-1.86,56,56,0,0,0-4.72,4.76c-.53.5.39-.68.38-.81.62-1-1,.33-.81-.16l.59-.33c.19-.23-.33-.21-.67,0a21.57,21.57,0,0,0,1.88-1.75c-.15-.45-2,.83-2.88,1.7l1.37-.42c-.71.72-1.06.38-1.91,1.25l-.17-.68c.08,0,.45,0,.78-.46-.22-.14,0-.22.24-.67C47,42.94,49.74,41,51,40.06l-.71.26.37-.48c-.86.28-3.95,2.79-4.76,3.45,0-.35,1.61-1.8,2-2.06-.25-.4-2.5,1.82-2.61,1.28L45,43c-.22.07-.19-.52-.44-.21a11.07,11.07,0,0,1,1.5-1.61l-1.66,1.08c.2-.1,1.4-1.35,1.64-1.54-.07-.17-1.62,1.2-1.75,1.47a12.79,12.79,0,0,1,1.09-1.78A8.6,8.6,0,0,0,44,41.85c-.48.17-.42-.07-.36-.28.79-.27,2.84-2.65,3.83-3.53l-4.23,3.08c.24-.2,1.46-1.31,1.6-1.45-1.14,1-1.9.55-2.06.1l.06,0c.44-.31.48-.87,0-.59.23-.2.19-.11.25-.08.62-1-1.92,1.37-1.16.21.08.29.56-.11,1-.54-.55.24-.47-.54-1.69.8.17-.36-.08-.29.58-.93l-.34.12.15-.21.11-.18c.33-.1.62-.19.2.35a16.25,16.25,0,0,1,1.92-1.84,3.68,3.68,0,0,0-1.63.61l.36-.76a2.24,2.24,0,0,0,.23-.84,3,3,0,0,0,.14-.39,1.21,1.21,0,0,0,.05-.18,1.37,1.37,0,0,0,.15-.21l-.1.06v0a3.26,3.26,0,0,0,.64-.58l-.51.11a2.32,2.32,0,0,0,.07-.46,2.24,2.24,0,0,0,0-.52s0-.06,0-.09a2.76,2.76,0,0,0,.08-.27l.79-.22a1.25,1.25,0,0,0,.25-.09c0,.13.06.26.08.3-.3-.05-.57.38-.85.76.77-.56.91-.56.56.06,1.05-1,2.17-2,2.51-1.83a1.28,1.28,0,0,0-.54.37c-.18.23.12.07.21,0-.18.23-.43.3-.76.68,1.17-.77.4.26,1,.18-.4.22-.52.49-.85.87,1.19-1.12-.64,1.36.76-.22-.37,1.42,1.28,1.41.52,2.56-.36.47.47,0,.58,0l-.52.49c1.18-.65.54-.14,1.78-.75a3.38,3.38,0,0,0-1.31,1.39l1.27-.83-.75.81c.39-.21.37,0,.34.21.94-.75,1.19-.36,1.72-.78-1,1.14.52,0-.41,1a2.53,2.53,0,0,1,.49-.25c.42-.51.93-1,.78-.73h0l-.58.65a.57.57,0,0,1,.45,0,2.8,2.8,0,0,1,.23-.4c-.06.13-.14.28-.21.41s0,0,0,0H51c-.09.19-.11.32.17.18-.65,1.24,2-.61,1,1,.09-.18.07-.31-.17-.11.34.21-.27,1.36.38,1.07l.57-.58c.46-.06.8-.09.93.11l.66-.63c0,.47,1.56-.06.37,1.41.57-.46.17.48.48.44l-.46.52c0,.34.3.27.55.23-.69,1.38.67.7.91,1.08l-.14.15.68,0c-.54.36.37-.24.34,0,.35-.14.38.15.18.59l.17.23c-.56.11-.7.72-1.27,1.3l.6-.33c-.23.33-.54.37-.57.58.4-.22.63.06,1.31-.45a3,3,0,0,0,.32-.47c-.05,0,0,0,0,0l0,0v0a2.77,2.77,0,0,0,.26-.19c0,.29.21,0,.47-.26-.72,1.06,0,.57-.93,1.75,1-1.36.43.4,1.45-.83-.78,1,.05.13-.65,1,.06-.44-1,.2-1.52.43l-.39.69c-1.14.92,0-.71-.4-.46.3-.18.2.19,0,.43l.75-.82c.1-.52-.69-.09-1.23.14C55.67,46.61,55.14,46.51,54.68,47.16Zm2.19-3.42,0,0C57,43.52,57,43.39,56.87,43.74Zm-8.62-5.4c.08-.08.16-.14.23-.2S48.38,38.2,48.25,38.34Zm1.66,5,.06,0,1.3-1.3Z" transform="translate(-14.06 -10.1)" fill="#2e3192"/><path d="M23.42,25.39a2.3,2.3,0,0,0,.47.13l.15.41-.18.32-.52,1.21v.14l-.21.07,0,.11H23a.93.93,0,0,1,.11.41l-.11,0,0,.46-.17.2,0,.29-.1,0,0,.25-.07.16v.28l-.06.07v.25l-.11.24.84.14.06.06.37,0a.52.52,0,0,0,.2-.06l.2-.13.31,0,.35-.18a3.54,3.54,0,0,0,.62-.22l.33.07v.54l-.24.37v.14l-.22,0-.17.06-.21,0-.21.1-.1-.07-.15.18-.53.11-.3.16h-.36l-.41.11,0-.07-.24.07-.18.28V33.1l-.07.11.11.24,0,.31.07.25v.24l.17.11H23l.27.07.05.28-.25.2,0,.21-.28.38-.06.24-.21.17-.07.22-.56.33a.91.91,0,0,1-.18.24l-.16.13-.08.06-.49.16,0-.27.18-.11.07-.21.08-.06.06-.17-.21-.18.18-.79,0-.12.06-.23-.06-.14.16-.49-.1-.48,0-.13,0-1,0-.29,0-.06v-.14l-.16-.27v-.18l-.33,0v.22l-.45-.08h-.13l-.43.17v.11l-.42.07-.21-.07,0,.07-.14,0-.49.09-.77.29-.09.15v1.13l-.11.22.55.2v.31l0,.14-.13.11L18,35l0,.32.07.06a.72.72,0,0,1-.18.29h-.2v.1l-.1.07a1.31,1.31,0,0,0-.19.31h-.06l-.18.18-.38-.08h-.22l-.16-.13,0-.15s.07-.11.16-.2l0-.34-.07-.24.07-.46,0-.28.11-.38,0-.35,0,0v-.2l.1-.24v-.14l-.1-.18.1-.39-.18-.16-.23,0-.11.13-.11-.07a.54.54,0,0,1-.31.1l-.15.14-.9.17h-.09l-.12.14-.27-.14-.24.11-.09-.14.09-.2-.09-.08.12-.48.24-.11.06-.09.49-.11.25.06.07.08.31-.14.28,0,.22,0,.21.06.06-.1.11,0,.06,0,.14-.07c0,.05.14.08.35.11l.11-.18-.08-.52a1.19,1.19,0,0,0,.25-.44l-.1,0,.15-.22-.15-.45.1-.53-.07-.54.12-.14-.05-.11.11-.24-.06-.47h-.27a.59.59,0,0,0-.24.09.85.85,0,0,0-.24.2l-.13,0-.14.12a.51.51,0,0,1-.16.11l-.23.07.07.31-.14.36,0-.22a4.26,4.26,0,0,0-.38.35l-.12-.07-.27.08,0,.09-.24.15v.1l-.45-.13-.18-.21V29l.13-.38.35-.38.28-.11.19-.13a1.93,1.93,0,0,1,.37-.17l.07-.11.31-.06.07-.1h.18l.32-.25h.23l.08-.11h.3l.27-.14a.67.67,0,0,0,.19-.21h.17a.87.87,0,0,0,.25-.12l0-.14.21,0,.11-.14h.11l.2-.24L19,26l.36,0a1.84,1.84,0,0,0,.35.38v.35l-.08.14-.38.06-.07.32-.19.63-.16.65v.21l-.13.14,0,.25-.11.13-.25,1.15-.14.2,0,.38.08.14.27,0,.34.1.36-.07.8-.06h.18l.06.06.49-.11.08-.06h.27l.31.06.22-.12-.06-.4.18-.24-.09-.24.11-.35,0-.33.07-.24-.07-.22.07-.18A.75.75,0,0,1,22,28.5l-.15-.2.18-.41v-.25L22,27.29l.07-.11-.07-.1.21-.38.06,0,.05-.38.1-.07.07-.15.21-.09.42-.35h.24Z" transform="translate(-14.06 -10.1)" fill="#2e3192"/><path d="M30.56,25.49l.19.09a.34.34,0,0,1,.16.11l.14.18-.11.06-.1.43-.25.41.08.06-.22.22v.13l-.11.14v.25l-.2.27-.21.87-.14.14v.35l-.11.06-.24.87-.05.08L29.3,31l.11.06,0,.27.1.11.2-.11.49-.44.08-.13.31-.14.6-.63.18-.14a1,1,0,0,0,.2-.24,1.28,1.28,0,0,0,.39-.13l.13-.39.14,0,.09-.09a1.23,1.23,0,0,1,.22-.1l0-.14.32-.38.21-.11v0l.12-.08a1.24,1.24,0,0,0,.23-.3l.18.06.14-.17,0-.27a.76.76,0,0,0,.2-.25l.06.17v-.49l.12-.27,0,.08.15-.31a1.93,1.93,0,0,1,.21-.32l0,0,.55-.35.5-.21a2.46,2.46,0,0,1,.44-.06l.28.32-.21.22.14.6.31.17-.28.16,0,.11-.26.23a.36.36,0,0,0-.08.12c0,.05,0,.12-.08.21l0,.61-.14.49c0,.14,0,.3-.06.46l.14.27,0,1-.43,1,0,.23h.14l-.24.18a1.15,1.15,0,0,1,.24.52l-.08.41-.13.14V33A2.77,2.77,0,0,0,35,34.18l.13.18-.13.16,0,.39-.11.13,0,.22-.06.1v.35l-.25.48h0l0,.38-.18.18-.31.9-.21.93-.14.06v.18l-.2.36-.21.2-.11.32-.66.71-.28.11-.11.27-.21.14-.34.14-.49.42-.25,0v.1l-.17.11-.49.44-.8.35-.18-.21.1-.15a2,2,0,0,0,.08-.4l.66-.35.53-.38.2-.22.1,0v0l.14,0,.46-.32a.65.65,0,0,1,.17-.17v-.07a3.69,3.69,0,0,1,.42-.34l.1-.27.36-.38v-.11a1.8,1.8,0,0,0,.41-.38l-.11-.25.33-.37.1-.28V37.6l.1-.13a1.93,1.93,0,0,0,.24-.25.5.5,0,0,0-.17-.23l.14-.32-.06-.24a.79.79,0,0,1,.08-.29.6.6,0,0,1,.2-.29l.06-.35,0-.11.17-.25-.14-.1.21-.33,0-.32.06-.11.08-.55-.08-.49h.11v-.41l.14,0-.11-.55-.11-.08.08-.24-.11-.35.14-.28,0-.13,0-.06L34.26,31v-.14l0-.07,0-.11-.11-1-.14,0v-.35l0-.48a.69.69,0,0,1-.06-.21l0-.21h-.17l-1,1.12-.31.13-.71.76,0,.08-.87.79-.17.11-.5.47-.78.52-.4.29-.66.2-.32.24-.12-.15a1.16,1.16,0,0,1-.13-.34,2.55,2.55,0,0,0,.32-.64c.08-.25.14-.38.17-.39v-.38l-.06-.11a1.16,1.16,0,0,0,.17-.38v-.27l0-.25a1.25,1.25,0,0,1,.2-.3l.19-.91v-.27l.13-.22,0-.16L29,28l-.11-.31.07-.07-.07-.28h-.21l-.11.11-.24,0-.1.24-.18,0-.17.28-.41.13-.33-.51.08-.31a.82.82,0,0,0,.25-.27l.3-.11.14-.24,1.78-.8.25-.13h.17Z" transform="translate(-14.06 -10.1)" fill="#2e3192"/><path d="M41.17,24.86l.15.11,1.52.14,0,0,1.49.22.11.23.17.12.28-.16H45l.14-.06.14.06h.24l.11.16.08-.12.33,0,.11.11a.85.85,0,0,1,.63.3l.58.08,0,.1.11.1h.14l.14.08a2.11,2.11,0,0,0,.35.1l.11.14.27,0,.17.45-.14.29a1.14,1.14,0,0,0-.06.32l.1.19-.31.54a.55.55,0,0,1-.17.2,3,3,0,0,1-.37.21l-.2.08-.8.56-1.12.59h-.35l-.27.12-.13,0-.11.12a2,2,0,0,1-.38.21l-.43.08-.34.24L42,31.3l-.07-.06-.42.17h-.14l-.18.24V32l-.07.35v.41l-.21.17L41,33l0,.14-.06.06-.08.46.08.06-.19.22.14.13-.11.14,0,.38-.13.14,0,.18-.2.44v.35l-.39.8-.14.21a2.85,2.85,0,0,0-.18.38l-.13.06v.14l-1,1-.58.31h-.25l0,.08h-.28l-.18-.14a.82.82,0,0,1,.11-.38.85.85,0,0,0-.25-.28l.14-.2.46-.39.2-.06h.27l.19.27c.35-.26.55-.46.59-.59l.15-.06-.05-.11.14-.24.08,0,0-.14.1-.08,0-.1v-.31l.22-.14-.07-.07.18-.25v-.09l.09-.32,0-.25a1.3,1.3,0,0,1,.13-.33L40,34.36l.1-.08-.1-.1.13,0-.06-.09.18-.7V33.1l.1-.27-.13-.11.13,0,.14-.35-.3-.47-.09-.35v-.11l.09-.17.38-.27q.06-.18.09-.18l-.06-.14,0-.17,0,0V30.1l-.2-.14.06-.07,0-.31.11-.19-.08-.09h-.14l.11-.29.08,0-.11-.06-.08-.32-.13,0,.1-.14-.1-.13v-.19l-.12-.06a.67.67,0,0,0,.09-.24L40,27.7l-.38.28v.1l-.29.22-.2.2-.39.18-.51.49L38.11,29v-.09l-.13-.1,0-.13a3.64,3.64,0,0,1,.2-.44l.33-.27.14-.17.55-.31.08-.15h.13a.75.75,0,0,1,.28-.17l.11-.13a3,3,0,0,0,.45-.25v-.1l-.12-.21a2.13,2.13,0,0,0-.3-.34l-.06-.31.06-.13.42-.08a2.26,2.26,0,0,1,.62-.59Zm2.06,1.56-.28.14-.38,0-.25,0-.25,0-.16.62.07.14,0,.25,0,.13-.13.22,0,.68-.11.41.08.19-.05.28.05.13-.16.28v.48a2.33,2.33,0,0,1,.63.17l.35-.14h.25l.14-.1.74-.17L46,29.17l.12-.1a.77.77,0,0,1,.3-.15v0l.24-.1.46-.38.17-.32a2,2,0,0,0-.55-.65h-.08L46,26.88l-.48-.08-.14-.13-.39,0-.28,0-.07-.14-.21-.08-.42.19-.27-.11-.22.08Z" transform="translate(-14.06 -10.1)" fill="#2e3192"/><path d="M51.8,31.78l.22,0,0,0a.41.41,0,0,0,.21.09l0,0,.21,0h.06v.06h.12l.19.09h-.12l.43.15.12,0,.25.09v0h.12v0l.06,0,.12.07h0a1,1,0,0,1,.53.12v.09h0l-.19.24-.37.06-.12.31a.65.65,0,0,0-.3.24l-.19,0L53,33.33l-.26,0a.21.21,0,0,1-.11-.05l-.16-.11h-.21a.8.8,0,0,0-.49-.18H51.3l-.3-.13h-.09a1.5,1.5,0,0,0-1,.58v0l-.06,0v0c-.2,0-.3-.06-.3-.2a.89.89,0,0,1,.11-.38,1.1,1.1,0,0,1,.31-.39.85.85,0,0,1,.13-.22l.06,0,.06-.18.25-.06v0l.21-.06,0,0c.14,0,.22,0,.25-.06l0,0,0-.06h0l0,0,.43-.12.12,0v-.06a.1.1,0,0,0,.1.07A.24.24,0,0,0,51.8,31.78Z" transform="translate(-14.06 -10.1)" fill="#2e3192"/><path d="M67.07,25.56h.13l.19.18,0,.21.24.14h-.24l-.55.41c-.19.1-.42.22-.69.38l0,.11h-.3l-.18.27-.29.18-.06.06a1.94,1.94,0,0,0-.35.2,1.58,1.58,0,0,0-.25.26h-.13a.6.6,0,0,1-.21.23l-.1.24-.28.11-.23.16a.68.68,0,0,1-.26.12l-.14.27-.35.18-.11.25.08.1-.38.41.13.21-.07.29,0,.23a3.07,3.07,0,0,1,.14.67l-.08,0v.1l.11-.07.21.41.14.32.17.11,0,.06.25.16.16.24c.06.08.16.18.3.33l.27.14a1.49,1.49,0,0,0,.31.1l0,.06.3.11a1.41,1.41,0,0,0,.25.17l1,0,.21,0h.32l-.08,0H67l0-.07.33,0,0-.11h.36l-.12-.11v-.24l0-.28,0,0,.36-.42.11,0a.39.39,0,0,0,.28-.09l-.09-.07.09-.17.24,0,.11-.18h.09l.1.24-.06.21,0,.09-.07.16.07.09-.1,0a.75.75,0,0,0-.14.31l-.11.11.08,0-.08.07-.19.44-.06,0V34l-.13.13-.11.07a.74.74,0,0,0-.17.18l-.25,0v.06l-.16,0-.14.18-.81.17h-.4l-.26-.06-.31.06-.35-.14-.53.1L64,34.59l0-.12-.42.09-.3-.15a2.06,2.06,0,0,1-.25-.24l-.32-.08-.07-.15a1.29,1.29,0,0,0-.27-.31l-.19-.05-.19-.27V33.1l-.22-.1,0-.19-.11-.06,0-.07-.2-.2,0-.25-.21-.51,0-.13a.82.82,0,0,0-.15-.22l-.29-.1-.16.19,0,.24a.85.85,0,0,1-.09.24l-.18.28v.33l-.11.16.08.16-.14.07.06.15-.06.36.06.08-.06.11.06.19L60,34l0,.58,0,.17a1.49,1.49,0,0,0,.15.32l-.11.65-.07.08v.06l-.21.11-.21.24a1.93,1.93,0,0,0-.42.25l-.24-.14.14-.28-.11-.13.05-.22-.22-.16.11-.22v-.16a3.21,3.21,0,0,1,0-.39l0-.22a1.19,1.19,0,0,1,.15-.34l-.07-.2.07-.32.09-.72.12-.35v-.08l.07-.33,0-.38.08-.14a.76.76,0,0,1,.09-.38l0-.11.21-.93,0-.38.08-.07v-.25l.07-.25-.07-.27L59.71,29v-.2l.25-.24,0-.32-.07-.3.11-.25v-.17l-.11-.13-.46-.22a5.51,5.51,0,0,1-.62.22l-.38.1-.24,0-.29.14-.72.13,0,.17a.77.77,0,0,0,.14.29h.22l.17.3-.31.22v.07l-.21.2L57,29a1.78,1.78,0,0,0-.48.19l-.08-.08-.2,0-.15.32L56,29.24,56,29l-.21-.11v-.17l-.17-.07-.11-.17a5.09,5.09,0,0,1,.14-.65l.14,0,.21-.31h.06l0-.11h.1l.1-.12a1.41,1.41,0,0,1,.33-.2v-.09l.2,0,.17-.17.19,0,0-.11.24,0,.17-.15h.22l.24-.06.14-.14.21,0,.66-.11.34-.13.35-.06L60,26h.31l.49-.06.3-.14.08-.1.25-.05-.05-.07.54,0,.2.33-.17.19,0,.16-.29.39,0,.16a6.77,6.77,0,0,0-.32,1.09l0,.1-.09.23h-.07l0,.08,0,.16,0,.05a2.55,2.55,0,0,0-.21.44l.14.14-.21.56.1,0,.31-.07v-.06l.19-.07.1-.18.39,0v-.15l.27-.09.45-.32.21-.11.21-.23a.67.67,0,0,1,.21-.1l.08-.13a1.7,1.7,0,0,1,.31-.3l.79-.44a2.12,2.12,0,0,0,.19-.35l.55-.34.17-.21.63-.46.1,0a2.88,2.88,0,0,1,.28-.2l.14.06Z" transform="translate(-14.06 -10.1)" fill="#2e3192"/><path d="M77.14,14.8a1.38,1.38,0,0,1,.1-.55,1.35,1.35,0,0,1,.29-.44,1.42,1.42,0,0,1,.43-.29,1.62,1.62,0,0,1,1.12,0,1.42,1.42,0,0,1,.43.29,1.35,1.35,0,0,1,.29.44,1.38,1.38,0,0,1,.1.55V26.08a1.43,1.43,0,0,1-.1.56,1.46,1.46,0,0,1-.29.44,1.39,1.39,0,0,1-.43.28,1.62,1.62,0,0,1-1.12,0,1.39,1.39,0,0,1-.43-.28,1.46,1.46,0,0,1-.29-.44,1.43,1.43,0,0,1-.1-.56Z" transform="translate(-14.06 -10.1)" fill="#2e328c"/><path d="M85,19h0a2.5,2.5,0,0,1,.46-.53,3.58,3.58,0,0,1,.62-.43,3.31,3.31,0,0,1,1.62-.39,4.13,4.13,0,0,1,1.18.15,2.76,2.76,0,0,1,.86.42,2.16,2.16,0,0,1,.58.66,3.18,3.18,0,0,1,.36.86,5.5,5.5,0,0,1,.18,1,11,11,0,0,1,0,1.17v4.23a1.46,1.46,0,0,1-.09.52,1.23,1.23,0,0,1-.27.4,1.28,1.28,0,0,1-.4.27,1.46,1.46,0,0,1-.52.09,1.4,1.4,0,0,1-.51-.09,1.46,1.46,0,0,1-.41-.27,1.2,1.2,0,0,1-.26-.4,1.46,1.46,0,0,1-.09-.52V21.46a4.23,4.23,0,0,0-.08-.85,1.63,1.63,0,0,0-.25-.63,1.15,1.15,0,0,0-.46-.38,1.83,1.83,0,0,0-1.45,0,2,2,0,0,0-.6.47,2.37,2.37,0,0,0-.39.68,2.52,2.52,0,0,0-.14.82v4.54a1.4,1.4,0,0,1-.09.51,1.24,1.24,0,0,1-.67.68,1.46,1.46,0,0,1-.52.09,1.4,1.4,0,0,1-.51-.09,1.33,1.33,0,0,1-.41-.27,1.46,1.46,0,0,1-.27-.41,1.4,1.4,0,0,1-.09-.51V18.9a1.46,1.46,0,0,1,.09-.52,1.28,1.28,0,0,1,.27-.4,1,1,0,0,1,.41-.27,1.4,1.4,0,0,1,.51-.09,1.46,1.46,0,0,1,.52.09,1.11,1.11,0,0,1,.4.26,1.19,1.19,0,0,1,.27.39,1.39,1.39,0,0,1,.09.5Z" transform="translate(-14.06 -10.1)" fill="#2e328c"/><path d="M98.58,25.49a.5.5,0,0,1,.49.41.84.84,0,0,1,0,.27.83.83,0,0,1-.12.44.79.79,0,0,1-.34.31,5.63,5.63,0,0,1-.9.36,3.55,3.55,0,0,1-1,.15,4,4,0,0,1-1.19-.17,2.42,2.42,0,0,1-.89-.5,2.29,2.29,0,0,1-.56-.85,3.27,3.27,0,0,1-.19-1.19V19.5h-.79a.93.93,0,0,1-.34-.06.78.78,0,0,1-.26-.17A1,1,0,0,1,92.3,19a.88.88,0,0,1-.06-.33.9.9,0,0,1,.06-.34.81.81,0,0,1,.18-.26.68.68,0,0,1,.26-.18.93.93,0,0,1,.34-.06h.79V16.46a1.3,1.3,0,0,1,.1-.52,1.13,1.13,0,0,1,.27-.41,1.33,1.33,0,0,1,.41-.27,1.42,1.42,0,0,1,.52-.1,1.46,1.46,0,0,1,.52.1,1.51,1.51,0,0,1,.42.27,1.25,1.25,0,0,1,.26.41,1.3,1.3,0,0,1,.1.52v1.37H98a.88.88,0,0,1,.33.06.8.8,0,0,1,.27.18.78.78,0,0,1,.17.26.9.9,0,0,1,.06.34.88.88,0,0,1-.06.33.72.72,0,0,1-.44.44.88.88,0,0,1-.33.06h-1.5v4.81a4.06,4.06,0,0,0,0,.64,1.32,1.32,0,0,0,.18.45.79.79,0,0,0,.32.28,1.24,1.24,0,0,0,.5.09,1.21,1.21,0,0,0,.38-.06,1.56,1.56,0,0,0,.39-.15A.77.77,0,0,1,98.58,25.49Z" transform="translate(-14.06 -10.1)" fill="#2e328c"/><path d="M102.67,23a2.91,2.91,0,0,0,.06.57,2.74,2.74,0,0,0,.2.59,2.7,2.7,0,0,0,.34.56,2.23,2.23,0,0,0,.5.47,2.46,2.46,0,0,0,.67.33,2.77,2.77,0,0,0,.85.12,3.47,3.47,0,0,0,1.36-.27,3.26,3.26,0,0,0,1.17-.89,1.13,1.13,0,0,1,.28-.22.71.71,0,0,1,.32-.07.79.79,0,0,1,.35.09.87.87,0,0,1,.26.24.59.59,0,0,1,.09.31.68.68,0,0,1-.09.33,5.26,5.26,0,0,1-.66.89,3.9,3.9,0,0,1-.89.72,4.22,4.22,0,0,1-1.14.49,5.8,5.8,0,0,1-1.44.17,5.37,5.37,0,0,1-2.06-.37,4.34,4.34,0,0,1-2.52-2.56,5.4,5.4,0,0,1-.34-1.95,5.3,5.3,0,0,1,.36-2A4.46,4.46,0,0,1,102.89,18a5.37,5.37,0,0,1,2-.36,6.58,6.58,0,0,1,.71,0,4.41,4.41,0,0,1,.88.2,4.46,4.46,0,0,1,.92.43,3.67,3.67,0,0,1,.87.73,4.73,4.73,0,0,1,.7,1.13,5.81,5.81,0,0,1,.42,1.61.28.28,0,0,1,0,.09v.08a1.22,1.22,0,0,1-.08.43,1.07,1.07,0,0,1-.25.34,1.11,1.11,0,0,1-.38.22,1.39,1.39,0,0,1-.46.08Zm4.18-1.62a2.17,2.17,0,0,0-.12-.68,2,2,0,0,0-.35-.66,1.8,1.8,0,0,0-.62-.49,1.83,1.83,0,0,0-.91-.2,2.19,2.19,0,0,0-.7.11,1.92,1.92,0,0,0-.55.29,2,2,0,0,0-.41.4,2.21,2.21,0,0,0-.28.45,3.32,3.32,0,0,0-.16.43,1.82,1.82,0,0,0,0,.35Z" transform="translate(-14.06 -10.1)" fill="#2e328c"/><path d="M111.24,18.9a1.19,1.19,0,0,1,.1-.51,1.15,1.15,0,0,1,.26-.41,1.22,1.22,0,0,1,.41-.27,1.5,1.5,0,0,1,.52-.09,1.46,1.46,0,0,1,.52.09,1.25,1.25,0,0,1,.41.26,1.16,1.16,0,0,1,.26.39,1.21,1.21,0,0,1,.1.5v0a1.91,1.91,0,0,1,.38-.49,2.25,2.25,0,0,1,.55-.41,3.06,3.06,0,0,1,.67-.28,2.55,2.55,0,0,1,.72-.1.93.93,0,0,1,.45.1,1,1,0,0,1,.33.28,1.17,1.17,0,0,1,.21.4,1.85,1.85,0,0,1,.07.48.84.84,0,0,1-.08.37.7.7,0,0,1-.22.26.93.93,0,0,1-.34.13,1.31,1.31,0,0,1-.4,0l-.17,0h-.19a2.3,2.3,0,0,0-.79.14,1.8,1.8,0,0,0-1,1.05,2.28,2.28,0,0,0-.15.86v4.46a1.27,1.27,0,0,1-.1.52,1.25,1.25,0,0,1-.26.41,1.25,1.25,0,0,1-.93.36,1.5,1.5,0,0,1-.52-.09,1.62,1.62,0,0,1-.41-.27,1.25,1.25,0,0,1-.26-.41,1.27,1.27,0,0,1-.1-.52Z" transform="translate(-14.06 -10.1)" fill="#2e328c"/><path d="M121.14,19h0a2.76,2.76,0,0,1,.45-.53,3.58,3.58,0,0,1,.62-.43,3.63,3.63,0,0,1,.76-.29,3.44,3.44,0,0,1,.86-.1,4.2,4.2,0,0,1,1.19.15,2.76,2.76,0,0,1,.86.42,2.3,2.3,0,0,1,.58.66,3.53,3.53,0,0,1,.36.86,5.5,5.5,0,0,1,.18,1c0,.37,0,.76,0,1.17v4.23a1.27,1.27,0,0,1-.1.52,1.2,1.2,0,0,1-.26.4,1.41,1.41,0,0,1-.4.27,1.55,1.55,0,0,1-1,0,1.41,1.41,0,0,1-.4-.27,1.2,1.2,0,0,1-.26-.4,1.27,1.27,0,0,1-.1-.52V21.46a4.29,4.29,0,0,0-.07-.85,1.81,1.81,0,0,0-.25-.63,1.22,1.22,0,0,0-.46-.38,1.7,1.7,0,0,0-.71-.13,1.72,1.72,0,0,0-.75.17,2,2,0,0,0-.59.47,2,2,0,0,0-.39.68,2.28,2.28,0,0,0-.14.82v4.54a1.22,1.22,0,0,1-.1.51,1.25,1.25,0,0,1-.26.41,1.33,1.33,0,0,1-.41.27,1.36,1.36,0,0,1-.51.09,1.46,1.46,0,0,1-.52-.09,1.41,1.41,0,0,1-.4-.27,1.13,1.13,0,0,1-.27-.41,1.4,1.4,0,0,1-.1-.51V18.9a1.46,1.46,0,0,1,.1-.52,1,1,0,0,1,.27-.4,1.09,1.09,0,0,1,.4-.27,1.46,1.46,0,0,1,.52-.09,1.36,1.36,0,0,1,.51.09,1.15,1.15,0,0,1,.67.65,1.21,1.21,0,0,1,.1.5Z" transform="translate(-14.06 -10.1)" fill="#2e328c"/><path d="M130.12,20.62a.87.87,0,0,1-.41-.11.76.76,0,0,1-.29-.27.67.67,0,0,1-.1-.34.64.64,0,0,1,.12-.35A4.35,4.35,0,0,1,131,18.14a4.75,4.75,0,0,1,1-.39,4.64,4.64,0,0,1,1.12-.13,5.75,5.75,0,0,1,1.9.27,3,3,0,0,1,1.23.78,3.08,3.08,0,0,1,.67,1.25,6.56,6.56,0,0,1,.2,1.68v4.55a1.27,1.27,0,0,1-.1.52,1.2,1.2,0,0,1-.26.4,1.41,1.41,0,0,1-.4.27,1.55,1.55,0,0,1-1,0,1.2,1.2,0,0,1-.4-.26,1.11,1.11,0,0,1-.26-.4,1.13,1.13,0,0,1-.1-.49v-.07h0a2.91,2.91,0,0,1-.43.51,2.65,2.65,0,0,1-.56.42,3.37,3.37,0,0,1-.67.28,3,3,0,0,1-.8.1,4.14,4.14,0,0,1-.87-.09,3.48,3.48,0,0,1-.81-.25,3.55,3.55,0,0,1-.7-.43,2.38,2.38,0,0,1-.56-.58,2.57,2.57,0,0,1-.37-.74,3.06,3.06,0,0,1-.13-.88,3,3,0,0,1,.21-1.16,2.85,2.85,0,0,1,.57-.87,3.1,3.1,0,0,1,.85-.6,5.66,5.66,0,0,1,1-.39,8.19,8.19,0,0,1,1.12-.2,10.65,10.65,0,0,1,1.12-.06h.5l.51,0V21a1.66,1.66,0,0,0-.11-.64,1.23,1.23,0,0,0-.32-.51,1.38,1.38,0,0,0-.53-.34,2.19,2.19,0,0,0-.75-.12,2.73,2.73,0,0,0-1.13.24,3.39,3.39,0,0,0-1,.68,1.21,1.21,0,0,1-.31.21A.89.89,0,0,1,130.12,20.62Zm4.49,2.26-.52-.05-.6,0a3.78,3.78,0,0,0-.74.07,2.26,2.26,0,0,0-.69.24,1.76,1.76,0,0,0-.51.47,1.35,1.35,0,0,0-.19.75,1.45,1.45,0,0,0,.11.61,1.23,1.23,0,0,0,.3.44,1.43,1.43,0,0,0,.45.26,1.61,1.61,0,0,0,.54.08,1.44,1.44,0,0,0,.6-.14,1.83,1.83,0,0,0,.6-.41,2.36,2.36,0,0,0,.47-.67,2.27,2.27,0,0,0,.18-.93Z" transform="translate(-14.06 -10.1)" fill="#2e328c"/><path d="M144.79,25.49a.52.52,0,0,1,.32.11.57.57,0,0,1,.18.3,1.26,1.26,0,0,1,0,.27.83.83,0,0,1-.12.44.85.85,0,0,1-.34.31,6,6,0,0,1-.9.36,3.62,3.62,0,0,1-1.06.15,3.91,3.91,0,0,1-1.18-.17,2.35,2.35,0,0,1-.89-.5,2.29,2.29,0,0,1-.56-.85,3.27,3.27,0,0,1-.19-1.19V19.5h-.79a.9.9,0,0,1-.34-.06.78.78,0,0,1-.26-.17.8.8,0,0,1-.18-.27.88.88,0,0,1-.06-.33.9.9,0,0,1,.06-.34.88.88,0,0,1,.44-.44.9.9,0,0,1,.34-.06h.79V16.46a1.5,1.5,0,0,1,.09-.52,1.22,1.22,0,0,1,.68-.68,1.43,1.43,0,0,1,1,0,1.33,1.33,0,0,1,.41.27,1.13,1.13,0,0,1,.27.41,1.3,1.3,0,0,1,.1.52v1.37h1.5a.88.88,0,0,1,.33.06.88.88,0,0,1,.44.44.9.9,0,0,1,.06.34A.88.88,0,0,1,145,19a.8.8,0,0,1-.18.27.78.78,0,0,1-.26.17.88.88,0,0,1-.33.06h-1.5v4.81a4.06,4.06,0,0,0,.05.64,1,1,0,0,0,.18.45.79.79,0,0,0,.32.28,1.34,1.34,0,0,0,.88,0,1.56,1.56,0,0,0,.39-.15A.72.72,0,0,1,144.79,25.49Z" transform="translate(-14.06 -10.1)" fill="#2e328c"/><path d="M148.11,13.59a1.63,1.63,0,0,1,.59.11,1.49,1.49,0,0,1,.49.32,1.75,1.75,0,0,1,.32.48,1.46,1.46,0,0,1,.11.6,1.44,1.44,0,0,1-.11.59,1.66,1.66,0,0,1-.32.49,1.69,1.69,0,0,1-.49.33,1.54,1.54,0,0,1-1.19,0,1.69,1.69,0,0,1-.49-.33,1.51,1.51,0,0,1-.33-.49,1.54,1.54,0,0,1,0-1.19A1.58,1.58,0,0,1,147,14a1.49,1.49,0,0,1,.49-.32A1.64,1.64,0,0,1,148.11,13.59Zm-1.28,5.3a1.27,1.27,0,0,1,.1-.52,1.2,1.2,0,0,1,.26-.4,1.15,1.15,0,0,1,.41-.26,1.19,1.19,0,0,1,.51-.1,1.27,1.27,0,0,1,.52.1,1.2,1.2,0,0,1,.4.26,1.41,1.41,0,0,1,.27.4,1.46,1.46,0,0,1,.09.52v7.26a1.46,1.46,0,0,1-.09.52,1.27,1.27,0,0,1-.67.67,1.46,1.46,0,0,1-.52.09,1.36,1.36,0,0,1-.51-.09,1.33,1.33,0,0,1-.41-.27,1.2,1.2,0,0,1-.26-.4,1.27,1.27,0,0,1-.1-.52Z" transform="translate(-14.06 -10.1)" fill="#2e328c"/><path d="M151.26,22.6a5.87,5.87,0,0,1,.33-2,4.49,4.49,0,0,1,1-1.57,4.27,4.27,0,0,1,1.56-1,5.68,5.68,0,0,1,2.14-.37,5.26,5.26,0,0,1,2,.37,4.11,4.11,0,0,1,1.53,1,4.32,4.32,0,0,1,1,1.53,5.22,5.22,0,0,1,.34,1.91,5.83,5.83,0,0,1-.33,2,4.44,4.44,0,0,1-1,1.58,4.38,4.38,0,0,1-1.56,1,5.61,5.61,0,0,1-2.12.37,5.83,5.83,0,0,1-2.07-.35,4.24,4.24,0,0,1-2.49-2.53A5.54,5.54,0,0,1,151.26,22.6Zm7.19-.08a5.43,5.43,0,0,0-.14-1.22,3.26,3.26,0,0,0-.4-1,2.3,2.3,0,0,0-.7-.72,1.84,1.84,0,0,0-1-.26,1.87,1.87,0,0,0-1,.26,2.19,2.19,0,0,0-.7.72,3.27,3.27,0,0,0-.41,1,5.81,5.81,0,0,0-.12,1.2,6.21,6.21,0,0,0,.12,1.24,3.58,3.58,0,0,0,.4,1,2.1,2.1,0,0,0,.7.72,1.88,1.88,0,0,0,1,.27,2,2,0,0,0,.89-.19,2.07,2.07,0,0,0,.72-.6,3,3,0,0,0,.47-1A5.15,5.15,0,0,0,158.45,22.52Z" transform="translate(-14.06 -10.1)" fill="#2e328c"/><path d="M165.55,19h0a2.76,2.76,0,0,1,.45-.53,4,4,0,0,1,.62-.43,3.85,3.85,0,0,1,.76-.29,3.44,3.44,0,0,1,.86-.1,4.2,4.2,0,0,1,1.19.15,2.76,2.76,0,0,1,.86.42,2.16,2.16,0,0,1,.58.66,3.53,3.53,0,0,1,.36.86,5.5,5.5,0,0,1,.18,1c0,.37.05.76.05,1.17v4.23a1.46,1.46,0,0,1-.09.52,1.27,1.27,0,0,1-.67.67,1.46,1.46,0,0,1-.52.09,1.36,1.36,0,0,1-.51-.09,1.33,1.33,0,0,1-.41-.27,1.2,1.2,0,0,1-.26-.4,1.27,1.27,0,0,1-.1-.52V21.46a4.29,4.29,0,0,0-.07-.85,1.63,1.63,0,0,0-.25-.63,1.22,1.22,0,0,0-.46-.38,1.67,1.67,0,0,0-.71-.13,1.64,1.64,0,0,0-.74.17,2,2,0,0,0-.6.47,2,2,0,0,0-.39.68,2.52,2.52,0,0,0-.14.82v4.54a1.22,1.22,0,0,1-.1.51,1.25,1.25,0,0,1-.26.41,1.41,1.41,0,0,1-.4.27,1.55,1.55,0,0,1-1,0,1.41,1.41,0,0,1-.4-.27,1.13,1.13,0,0,1-.27-.41,1.4,1.4,0,0,1-.09-.51V18.9a1.46,1.46,0,0,1,.09-.52,1,1,0,0,1,.27-.4,1.09,1.09,0,0,1,.4-.27,1.55,1.55,0,0,1,1,0,1.2,1.2,0,0,1,.4.26,1.16,1.16,0,0,1,.26.39,1.21,1.21,0,0,1,.1.5Z" transform="translate(-14.06 -10.1)" fill="#2e328c"/><path d="M174.53,20.62a.87.87,0,0,1-.41-.11.84.84,0,0,1-.29-.27.67.67,0,0,1-.1-.34.64.64,0,0,1,.12-.35,4.42,4.42,0,0,1,.7-.8,4.25,4.25,0,0,1,.89-.61,4.48,4.48,0,0,1,1-.39,4.66,4.66,0,0,1,1.13-.13,5.79,5.79,0,0,1,1.9.27,3,3,0,0,1,1.23.78,3.06,3.06,0,0,1,.66,1.25,6.56,6.56,0,0,1,.2,1.68v4.55a1.46,1.46,0,0,1-.09.52,1.23,1.23,0,0,1-.27.4,1.28,1.28,0,0,1-.4.27,1.46,1.46,0,0,1-.52.09,1.4,1.4,0,0,1-.51-.09,1.25,1.25,0,0,1-.41-.26,1.11,1.11,0,0,1-.26-.4,1.3,1.3,0,0,1-.1-.49v-.07h0a2.91,2.91,0,0,1-.43.51,2.86,2.86,0,0,1-.55.42,3.73,3.73,0,0,1-.68.28,3,3,0,0,1-.8.1,4.14,4.14,0,0,1-.87-.09,3.8,3.8,0,0,1-.81-.25,3.55,3.55,0,0,1-.7-.43,2.58,2.58,0,0,1-.56-.58,2.55,2.55,0,0,1-.36-.74,2.75,2.75,0,0,1-.14-.88,3,3,0,0,1,.21-1.16,2.85,2.85,0,0,1,.57-.87,3.43,3.43,0,0,1,.85-.6,5.49,5.49,0,0,1,1-.39,8,8,0,0,1,1.11-.2,10.79,10.79,0,0,1,1.12-.06h.51l.5,0V21a1.87,1.87,0,0,0-.1-.64,1.34,1.34,0,0,0-.32-.51,1.5,1.5,0,0,0-.54-.34,2.11,2.11,0,0,0-.75-.12,2.76,2.76,0,0,0-1.13.24,3.53,3.53,0,0,0-1,.68,1.21,1.21,0,0,1-.31.21A.89.89,0,0,1,174.53,20.62ZM179,22.88l-.52-.05-.6,0a3.78,3.78,0,0,0-.74.07,2.26,2.26,0,0,0-.69.24,1.6,1.6,0,0,0-.5.47,1.27,1.27,0,0,0-.2.75,1.62,1.62,0,0,0,.11.61,1.37,1.37,0,0,0,.3.44,1.43,1.43,0,0,0,.45.26,1.61,1.61,0,0,0,.54.08,1.38,1.38,0,0,0,.6-.14,1.83,1.83,0,0,0,.6-.41,2.36,2.36,0,0,0,.47-.67,2.27,2.27,0,0,0,.18-.93Z" transform="translate(-14.06 -10.1)" fill="#2e328c"/><path d="M183.86,14.34a1.46,1.46,0,0,1,.1-.52,1.32,1.32,0,0,1,.27-.42,1.17,1.17,0,0,1,.42-.27,1.29,1.29,0,0,1,.53-.1,1.27,1.27,0,0,1,.52.1,1.17,1.17,0,0,1,.42.27,1.32,1.32,0,0,1,.27.42,1.27,1.27,0,0,1,.1.52v9.33c0,.26,0,.51,0,.74a2.91,2.91,0,0,0,.12.64,1.39,1.39,0,0,0,.28.49,1.07,1.07,0,0,0,.53.31,1.29,1.29,0,0,1,.52.31.71.71,0,0,1,.21.53.94.94,0,0,1,0,.3.63.63,0,0,1-.16.23.51.51,0,0,1-.23.15.59.59,0,0,1-.3,0,6.17,6.17,0,0,1-1.65-.27,2.68,2.68,0,0,1-1.11-.68,2.65,2.65,0,0,1-.62-1.12,6.32,6.32,0,0,1-.19-1.62Z" transform="translate(-14.06 -10.1)" fill="#2e328c"/><path d="M80,34.87H76.78a1.16,1.16,0,0,1-.42-.08.93.93,0,0,1-.33-.21,1.11,1.11,0,0,1-.22-.34,1.14,1.14,0,0,1,0-.84,1,1,0,0,1,.22-.33.83.83,0,0,1,.33-.22,1.16,1.16,0,0,1,.42-.08h9.15a1.16,1.16,0,0,1,.42.08,1,1,0,0,1,.55.55,1.14,1.14,0,0,1,0,.84,1,1,0,0,1-.22.34.93.93,0,0,1-.33.21,1.16,1.16,0,0,1-.42.08H82.75V45.18a1.47,1.47,0,0,1-.1.56,1.31,1.31,0,0,1-.73.73,1.64,1.64,0,0,1-.56.1,1.69,1.69,0,0,1-.56-.1,1.31,1.31,0,0,1-.73-.73,1.47,1.47,0,0,1-.1-.56Z" transform="translate(-14.06 -10.1)" fill="#2e328c"/><path d="M86.21,38a1.27,1.27,0,0,1,.1-.52,1.11,1.11,0,0,1,.67-.67,1.27,1.27,0,0,1,.52-.1,1.46,1.46,0,0,1,.52.09,1.2,1.2,0,0,1,.4.26,1,1,0,0,1,.27.4,1.35,1.35,0,0,1,.1.5v0a1.75,1.75,0,0,1,.38-.5,2.92,2.92,0,0,1,.55-.41,3.63,3.63,0,0,1,.67-.28,3,3,0,0,1,.72-.1,1.1,1.1,0,0,1,.45.1,1.12,1.12,0,0,1,.33.28,1.27,1.27,0,0,1,.21.4,1.85,1.85,0,0,1,.07.48.89.89,0,0,1-.08.38.69.69,0,0,1-.23.25.82.82,0,0,1-.33.14,1.32,1.32,0,0,1-.4,0h-.36a2.26,2.26,0,0,0-.79.14,1.62,1.62,0,0,0-.62.4,1.78,1.78,0,0,0-.42.64,2.31,2.31,0,0,0-.15.86v4.47a1.45,1.45,0,0,1-.1.51,1,1,0,0,1-.27.41,1.09,1.09,0,0,1-.4.27,1.55,1.55,0,0,1-1,0,1.13,1.13,0,0,1-.41-.27,1.15,1.15,0,0,1-.26-.41,1.25,1.25,0,0,1-.1-.51Z" transform="translate(-14.06 -10.1)" fill="#2e328c"/><path d="M94.17,39.72a.87.87,0,0,1-.41-.11.78.78,0,0,1-.28-.26.61.61,0,0,1-.1-.34.68.68,0,0,1,.11-.35,4.16,4.16,0,0,1,.7-.81,4.53,4.53,0,0,1,.89-.61,4.86,4.86,0,0,1,1-.38,4.58,4.58,0,0,1,1.12-.14,5.75,5.75,0,0,1,1.9.27A2.78,2.78,0,0,1,101,39a6.14,6.14,0,0,1,.2,1.68v4.55a1.4,1.4,0,0,1-.09.51,1.11,1.11,0,0,1-.67.67,1.44,1.44,0,0,1-.51.09,1.46,1.46,0,0,1-.52-.09,1,1,0,0,1-.4-.26,1.19,1.19,0,0,1-.27-.39,1.35,1.35,0,0,1-.09-.5v-.06h0a3.43,3.43,0,0,1-.43.5,2.88,2.88,0,0,1-2,.8,4.27,4.27,0,0,1-.87-.08,3.83,3.83,0,0,1-.81-.26,3.33,3.33,0,0,1-.7-.42,2.75,2.75,0,0,1-.55-.58,2.7,2.7,0,0,1-.37-.74,2.82,2.82,0,0,1-.13-.89A3,3,0,0,1,93,42.4a2.69,2.69,0,0,1,.57-.86,3.48,3.48,0,0,1,.84-.61,5.3,5.3,0,0,1,1-.38,6.8,6.8,0,0,1,1.11-.21,10.94,10.94,0,0,1,1.12-.06l.51,0,.51,0v-.21a1.93,1.93,0,0,0-.11-.65,1.34,1.34,0,0,0-.32-.51,1.45,1.45,0,0,0-.54-.33,2.11,2.11,0,0,0-.75-.12,2.68,2.68,0,0,0-1.12.24,3.4,3.4,0,0,0-1,.67.9.9,0,0,1-.31.21A.85.85,0,0,1,94.17,39.72ZM98.67,42l-.52-.05a5.79,5.79,0,0,0-.61,0,4.86,4.86,0,0,0-.74.07,2.12,2.12,0,0,0-.68.25,1.35,1.35,0,0,0-.51.47,1.29,1.29,0,0,0-.2.74,1.67,1.67,0,0,0,.11.62,1.35,1.35,0,0,0,.31.43,1.22,1.22,0,0,0,.44.26,1.67,1.67,0,0,0,.55.09,1.62,1.62,0,0,0,.6-.14,2.11,2.11,0,0,0,.6-.42,2.21,2.21,0,0,0,.46-.67,2.07,2.07,0,0,0,.19-.92Z" transform="translate(-14.06 -10.1)" fill="#2e328c"/><path d="M112.75,45.22a1.32,1.32,0,0,1-.1.53,1.17,1.17,0,0,1-.27.42,1.33,1.33,0,0,1-.41.27,1.47,1.47,0,0,1-.53.09,1.46,1.46,0,0,1-.52-.09,1.14,1.14,0,0,1-.42-.26,1.05,1.05,0,0,1-.27-.39,1.18,1.18,0,0,1-.1-.5V45.2h0a3,3,0,0,1-.46.55,3.14,3.14,0,0,1-.63.42,3.52,3.52,0,0,1-.75.28,4.07,4.07,0,0,1-.87.09,4.47,4.47,0,0,1-1.29-.18,4.22,4.22,0,0,1-1.09-.52,4.14,4.14,0,0,1-.87-.8,4.66,4.66,0,0,1-.64-1,5.13,5.13,0,0,1-.4-1.18,5.88,5.88,0,0,1-.13-1.27,6,6,0,0,1,.13-1.27,5.39,5.39,0,0,1,.4-1.15,4.36,4.36,0,0,1,.64-1,4,4,0,0,1,.88-.77,4,4,0,0,1,1.08-.5,4.47,4.47,0,0,1,1.29-.18,3,3,0,0,1,.93.13,3.87,3.87,0,0,1,.77.31,3.52,3.52,0,0,1,.6.42,3.35,3.35,0,0,1,.42.43V33.44a1.27,1.27,0,0,1,.1-.52,1.09,1.09,0,0,1,.27-.42,1.51,1.51,0,0,1,.42-.27,1.46,1.46,0,0,1,.52-.09,1.47,1.47,0,0,1,.53.09,1.33,1.33,0,0,1,.41.27,1.09,1.09,0,0,1,.27.42,1.27,1.27,0,0,1,.1.52ZM108,38.49a2,2,0,0,0-1,.25,2.07,2.07,0,0,0-.69.69,3.34,3.34,0,0,0-.4,1,5.93,5.93,0,0,0-.13,1.22,4.45,4.45,0,0,0,.15,1.16,3.05,3.05,0,0,0,.42,1,2.23,2.23,0,0,0,.72.68,2,2,0,0,0,1,.25,2.13,2.13,0,0,0,.72-.14,2.27,2.27,0,0,0,.68-.42,2.35,2.35,0,0,0,.5-.69,2.16,2.16,0,0,0,.19-.94V40.64a2.16,2.16,0,0,0-.17-.83,2.33,2.33,0,0,0-.46-.68,2.17,2.17,0,0,0-.69-.47A2,2,0,0,0,108,38.49Z" transform="translate(-14.06 -10.1)" fill="#2e328c"/><path d="M116.43,32.69a1.5,1.5,0,0,1,.6.12,1.33,1.33,0,0,1,.48.31,1.55,1.55,0,0,1,.32.48,1.56,1.56,0,0,1,0,1.2,1.44,1.44,0,0,1-.32.48,1.37,1.37,0,0,1-.48.33,1.5,1.5,0,0,1-.6.12,1.53,1.53,0,0,1-.6-.12,1.51,1.51,0,0,1-.81-.81,1.45,1.45,0,0,1,0-1.2,1.75,1.75,0,0,1,.32-.48,1.57,1.57,0,0,1,.49-.31A1.53,1.53,0,0,1,116.43,32.69ZM115.16,38a1.44,1.44,0,0,1,.09-.51,1.27,1.27,0,0,1,.27-.41,1.11,1.11,0,0,1,.4-.26,1.46,1.46,0,0,1,.52-.09,1.4,1.4,0,0,1,.51.09,1.11,1.11,0,0,1,.67.67,1.45,1.45,0,0,1,.1.51v7.27a1.4,1.4,0,0,1-.1.51,1.11,1.11,0,0,1-.67.67,1.4,1.4,0,0,1-.51.09,1.46,1.46,0,0,1-.52-.09,1.11,1.11,0,0,1-.4-.26,1.27,1.27,0,0,1-.27-.41,1.4,1.4,0,0,1-.09-.51Z" transform="translate(-14.06 -10.1)" fill="#2e328c"/><path d="M122.7,38.07h0a2.71,2.71,0,0,1,.45-.52,2.74,2.74,0,0,1,.62-.43,3.63,3.63,0,0,1,.76-.29,3.43,3.43,0,0,1,.86-.11,4.2,4.2,0,0,1,1.19.15,2.6,2.6,0,0,1,.85.42A2.19,2.19,0,0,1,128,38a3.78,3.78,0,0,1,.36.87,5.39,5.39,0,0,1,.18,1c0,.38.05.77.05,1.18v4.23a1.22,1.22,0,0,1-.1.51,1.25,1.25,0,0,1-.26.41,1.2,1.2,0,0,1-.4.26,1.55,1.55,0,0,1-1,0,1.2,1.2,0,0,1-.4-.26,1.46,1.46,0,0,1-.27-.41,1.4,1.4,0,0,1-.09-.51v-4.7a4.36,4.36,0,0,0-.07-.85,1.75,1.75,0,0,0-.25-.62,1,1,0,0,0-.47-.38,1.62,1.62,0,0,0-.7-.14,1.6,1.6,0,0,0-.75.18,2,2,0,0,0-.59.46,2.13,2.13,0,0,0-.39.69,2.25,2.25,0,0,0-.14.82v4.53a1.46,1.46,0,0,1-.1.52,1.2,1.2,0,0,1-.26.4,1,1,0,0,1-.41.27,1.36,1.36,0,0,1-.51.09,1.46,1.46,0,0,1-.52-.09,1.22,1.22,0,0,1-.41-.27,1.2,1.2,0,0,1-.26-.4,1.46,1.46,0,0,1-.1-.52V38a1.46,1.46,0,0,1,.1-.52,1.2,1.2,0,0,1,.26-.4,1.36,1.36,0,0,1,.41-.26,1.27,1.27,0,0,1,.52-.1,1.36,1.36,0,0,1,.51.09,1.15,1.15,0,0,1,.41.26,1.11,1.11,0,0,1,.26.4,1.35,1.35,0,0,1,.1.5Z" transform="translate(-14.06 -10.1)" fill="#2e328c"/><path d="M140,45.62a8.05,8.05,0,0,1-.27,2.17,4,4,0,0,1-.85,1.63,3.75,3.75,0,0,1-1.52,1,6.42,6.42,0,0,1-2.28.36,6.74,6.74,0,0,1-1.08-.09,4.69,4.69,0,0,1-1.13-.33,3.89,3.89,0,0,1-1.05-.65,3.72,3.72,0,0,1-.88-1.06.86.86,0,0,1-.11-.4.84.84,0,0,1,.11-.41,1.08,1.08,0,0,1,.32-.32.78.78,0,0,1,.41-.12.71.71,0,0,1,.37.1.88.88,0,0,1,.3.28,3.05,3.05,0,0,0,1.09.92,3.3,3.3,0,0,0,1.43.3,2.51,2.51,0,0,0,1.15-.24,1.9,1.9,0,0,0,.78-.68,3.17,3.17,0,0,0,.45-1.07,6.83,6.83,0,0,0,.14-1.42V45a4,4,0,0,1-.41.43,3.24,3.24,0,0,1-.57.42,3.11,3.11,0,0,1-.74.31,2.9,2.9,0,0,1-.91.13,4.48,4.48,0,0,1-1.84-.36,4,4,0,0,1-1.36-1,4.42,4.42,0,0,1-.83-1.47,5.75,5.75,0,0,1-.28-1.83,6,6,0,0,1,.28-1.86,4.5,4.5,0,0,1,.83-1.56,4,4,0,0,1,1.35-1.06,4.1,4.1,0,0,1,1.86-.4,3.28,3.28,0,0,1,.84.1,2.82,2.82,0,0,1,.72.27,2.56,2.56,0,0,1,.59.43,2.63,2.63,0,0,1,.46.54h0V38a1.35,1.35,0,0,1,.09-.5,1.24,1.24,0,0,1,.69-.66,1.51,1.51,0,0,1,.53-.09,1.32,1.32,0,0,1,.53.1,1.13,1.13,0,0,1,.41.27,1.33,1.33,0,0,1,.27.41,1.51,1.51,0,0,1,.1.53Zm-4.62-7.12a2.05,2.05,0,0,0-1,.23,2,2,0,0,0-.69.62,2.77,2.77,0,0,0-.39.93,4.57,4.57,0,0,0-.13,1.14,6.42,6.42,0,0,0,.11,1.19,3,3,0,0,0,.37,1,1.87,1.87,0,0,0,.66.65,2.09,2.09,0,0,0,1,.23,2,2,0,0,0,.81-.17,2.09,2.09,0,0,0,.66-.47,2.43,2.43,0,0,0,.43-.69,2.31,2.31,0,0,0,.16-.83v-1.6a2.32,2.32,0,0,0-.18-.94,2.11,2.11,0,0,0-.47-.68,1.91,1.91,0,0,0-.65-.42A1.8,1.8,0,0,0,135.35,38.5Z" transform="translate(-14.06 -10.1)" fill="#2e328c"/><path d="M149.57,32.63a1.13,1.13,0,0,1,.36-.3,1,1,0,0,1,.43-.1,1.06,1.06,0,0,1,.42.09.65.65,0,0,1,.32.24.61.61,0,0,1,.11.35.75.75,0,0,1-.1.36,18.36,18.36,0,0,0-.82,1.73,15.27,15.27,0,0,0-.61,1.88,16.28,16.28,0,0,0-.39,2,13.8,13.8,0,0,0-.14,2,15.5,15.5,0,0,0,.12,1.86,17.79,17.79,0,0,0,.37,2,17,17,0,0,0,.61,2,12.42,12.42,0,0,0,.85,1.84.78.78,0,0,1,.11.37.62.62,0,0,1-.11.34.7.7,0,0,1-.32.23,1.11,1.11,0,0,1-.42.08,1,1,0,0,1-.79-.4,11.37,11.37,0,0,1-.8-1.2,14.13,14.13,0,0,1-.67-1.35,13.63,13.63,0,0,1-.55-1.43c-.16-.49-.3-1-.41-1.46s-.19-1-.25-1.46a11.33,11.33,0,0,1-.09-1.4,12.24,12.24,0,0,1,.19-2.14,14,14,0,0,1,.55-2.19,14.51,14.51,0,0,1,.87-2.08A12.52,12.52,0,0,1,149.57,32.63Z" transform="translate(-14.06 -10.1)" fill="#2e328c"/><path d="M156.26,41v4.16a1.47,1.47,0,0,1-.1.56,1.31,1.31,0,0,1-.73.73,1.63,1.63,0,0,1-.55.1,1.69,1.69,0,0,1-.56-.1,1.46,1.46,0,0,1-.44-.29,1.33,1.33,0,0,1-.28-.44,1.47,1.47,0,0,1-.11-.56v-11a1.47,1.47,0,0,1,.11-.56,1.33,1.33,0,0,1,.28-.44,1.27,1.27,0,0,1,.44-.28,1.47,1.47,0,0,1,.56-.11h3.37a6.53,6.53,0,0,1,1.86.25,4.25,4.25,0,0,1,1.49.74,3.59,3.59,0,0,1,1,1.23,3.89,3.89,0,0,1,.35,1.72,4.17,4.17,0,0,1-.19,1.3,3.93,3.93,0,0,1-.55,1.08,3.84,3.84,0,0,1-.81.85,4.94,4.94,0,0,1-1,.61,5.15,5.15,0,0,1-1.15.37A6.11,6.11,0,0,1,158,41Zm.76-1.91a5.92,5.92,0,0,0,.71,0,3.4,3.4,0,0,0,.7-.17,3.07,3.07,0,0,0,.64-.29,2.48,2.48,0,0,0,.53-.44,2,2,0,0,0,.35-.59,2.07,2.07,0,0,0,.13-.77,1.89,1.89,0,0,0-.16-.79,1.71,1.71,0,0,0-.44-.62,2.14,2.14,0,0,0-.69-.41,2.52,2.52,0,0,0-.89-.14h-1.64v4.27Z" transform="translate(-14.06 -10.1)" fill="#2e328c"/><path d="M169.88,42.12l3.57-8.8a1.19,1.19,0,0,1,.45-.59,1.16,1.16,0,0,1,.68-.21,1.32,1.32,0,0,1,.51.1,1.2,1.2,0,0,1,.58.45,1.19,1.19,0,0,1,.2.66,1.35,1.35,0,0,1-.11.52l-5,11.6a1.21,1.21,0,0,1-1.76.53,1.29,1.29,0,0,1-.43-.54l-4.8-11.38a1.54,1.54,0,0,1-.12-.58,1.26,1.26,0,0,1,.23-.73,1.35,1.35,0,0,1,.64-.5,1.74,1.74,0,0,1,.57-.11,1.23,1.23,0,0,1,.74.23,1.37,1.37,0,0,1,.51.66Z" transform="translate(-14.06 -10.1)" fill="#2e328c"/><path d="M180.53,34.87h-3.19a1.16,1.16,0,0,1-.42-.08.93.93,0,0,1-.33-.21,1,1,0,0,1-.22-.34,1.14,1.14,0,0,1,0-.84,1,1,0,0,1,.55-.55,1.16,1.16,0,0,1,.42-.08h9.15a1.16,1.16,0,0,1,.42.08.83.83,0,0,1,.33.22,1,1,0,0,1,.22.33,1.14,1.14,0,0,1,0,.84,1.11,1.11,0,0,1-.22.34.93.93,0,0,1-.33.21,1.16,1.16,0,0,1-.42.08h-3.18V45.18a1.47,1.47,0,0,1-.11.56,1.33,1.33,0,0,1-.28.44,1.46,1.46,0,0,1-.44.29,1.62,1.62,0,0,1-1.12,0,1.35,1.35,0,0,1-.44-.29,1.21,1.21,0,0,1-.29-.44,1.47,1.47,0,0,1-.1-.56Z" transform="translate(-14.06 -10.1)" fill="#2e328c"/><path d="M190.05,49.22a.94.94,0,0,1-.79.39,1.11,1.11,0,0,1-.42-.08.62.62,0,0,1-.31-.23.58.58,0,0,1-.11-.34.7.7,0,0,1,.1-.36,12.35,12.35,0,0,0,.85-1.84,16.25,16.25,0,0,0,.61-2,15.92,15.92,0,0,0,.37-2,13.76,13.76,0,0,0,.13-1.86,15.57,15.57,0,0,0-.14-2,16.12,16.12,0,0,0-1-3.86,15.26,15.26,0,0,0-.81-1.73.76.76,0,0,1-.1-.36.61.61,0,0,1,.11-.35.67.67,0,0,1,.31-.24,1.11,1.11,0,0,1,.43-.09,1,1,0,0,1,.42.1.88.88,0,0,1,.35.29,11.36,11.36,0,0,1,1.17,1.87,13.77,13.77,0,0,1,.88,2.09,13.92,13.92,0,0,1,.55,2.18,12.43,12.43,0,0,1,.19,2.15,12.29,12.29,0,0,1-.19,2.13,17.74,17.74,0,0,1-.56,2.2,15.64,15.64,0,0,1-.88,2.11A12.28,12.28,0,0,1,190.05,49.22Z" transform="translate(-14.06 -10.1)" fill="#2e328c"/><path d="M200,33.91a1.47,1.47,0,0,1,.1-.56,1.17,1.17,0,0,1,.29-.43,1.21,1.21,0,0,1,.44-.29,1.62,1.62,0,0,1,1.12,0,1.3,1.3,0,0,1,.44.29,1.28,1.28,0,0,1,.28.43,1.47,1.47,0,0,1,.11.56V44.24h5.07a1.07,1.07,0,0,1,.41.08.93.93,0,0,1,.33.21,1,1,0,0,1,.22.33,1.14,1.14,0,0,1,0,.84.83.83,0,0,1-.22.33,1.12,1.12,0,0,1-.33.22,1.07,1.07,0,0,1-.41.07h-6.47a1.47,1.47,0,0,1-.56-.1,1.17,1.17,0,0,1-.43-.29,1.21,1.21,0,0,1-.29-.44,1.42,1.42,0,0,1-.1-.55Z" transform="translate(-14.06 -10.1)" fill="#2e328c"/><path d="M215.05,44.6a.48.48,0,0,1,.31.1.58.58,0,0,1,.19.3,1.39,1.39,0,0,1,0,.27.93.93,0,0,1-.11.44.76.76,0,0,1-.35.31,4.58,4.58,0,0,1-.9.37,3.86,3.86,0,0,1-1.05.14,3.92,3.92,0,0,1-1.18-.16,2.5,2.5,0,0,1-.89-.51,2.07,2.07,0,0,1-.56-.84,3.33,3.33,0,0,1-.2-1.19V38.61h-.79a.72.72,0,0,1-.33-.07,1,1,0,0,1-.27-.17.9.9,0,0,1-.17-.26,1,1,0,0,1,0-.68.9.9,0,0,1,.17-.26,1,1,0,0,1,.27-.17.72.72,0,0,1,.33-.07h.79V35.57a1.46,1.46,0,0,1,.1-.52,1.33,1.33,0,0,1,.27-.41,1,1,0,0,1,.41-.27,1.27,1.27,0,0,1,.52-.1,1.32,1.32,0,0,1,.53.1,1.13,1.13,0,0,1,.41.27,1.33,1.33,0,0,1,.27.41,1.46,1.46,0,0,1,.1.52v1.36h1.49a.77.77,0,0,1,.34.07.78.78,0,0,1,.26.17,1.2,1.2,0,0,1,.18.26,1,1,0,0,1,0,.68,1.2,1.2,0,0,1-.18.26.78.78,0,0,1-.26.17.77.77,0,0,1-.34.07H213v4.81a3,3,0,0,0,.05.63,1.26,1.26,0,0,0,.17.46.73.73,0,0,0,.33.27,1.19,1.19,0,0,0,.49.09,1.74,1.74,0,0,0,.39,0l.39-.15A.55.55,0,0,1,215.05,44.6Z" transform="translate(-14.06 -10.1)" fill="#2e328c"/><path d="M226.22,45.22a1.32,1.32,0,0,1-.1.53,1.17,1.17,0,0,1-.27.42,1.33,1.33,0,0,1-.41.27,1.47,1.47,0,0,1-.53.09,1.46,1.46,0,0,1-.52-.09,1.14,1.14,0,0,1-.42-.26,1.21,1.21,0,0,1-.37-.89V45.2h0a3,3,0,0,1-.46.55,3.46,3.46,0,0,1-.63.42,3.52,3.52,0,0,1-.75.28,4.07,4.07,0,0,1-.87.09,4.47,4.47,0,0,1-1.29-.18,4.22,4.22,0,0,1-1.09-.52,4.14,4.14,0,0,1-.87-.8,4.66,4.66,0,0,1-.64-1,5.65,5.65,0,0,1-.4-1.18,5.88,5.88,0,0,1-.13-1.27,6,6,0,0,1,.13-1.27,5.39,5.39,0,0,1,.4-1.15,4.36,4.36,0,0,1,.64-1,4,4,0,0,1,.88-.77,4,4,0,0,1,1.08-.5,4.47,4.47,0,0,1,1.29-.18,3,3,0,0,1,.93.13,3.87,3.87,0,0,1,.77.31,3.52,3.52,0,0,1,.6.42,2.79,2.79,0,0,1,.42.43V33.44a1.27,1.27,0,0,1,.1-.52,1.22,1.22,0,0,1,.27-.42,1.51,1.51,0,0,1,.42-.27,1.46,1.46,0,0,1,.52-.09,1.47,1.47,0,0,1,.53.09,1.33,1.33,0,0,1,.41.27,1.09,1.09,0,0,1,.27.42,1.27,1.27,0,0,1,.1.52Zm-4.77-6.73a2,2,0,0,0-1,.25,2.07,2.07,0,0,0-.69.69,3.34,3.34,0,0,0-.4,1,5.94,5.94,0,0,0-.12,1.22,4.44,4.44,0,0,0,.14,1.16,3.05,3.05,0,0,0,.42,1,2.23,2.23,0,0,0,.72.68,2,2,0,0,0,1,.25,2.13,2.13,0,0,0,.72-.14,2.27,2.27,0,0,0,.68-.42,2.35,2.35,0,0,0,.5-.69,2.16,2.16,0,0,0,.19-.94V40.64a2.18,2.18,0,0,0-1.32-2A2,2,0,0,0,221.45,38.49Z" transform="translate(-14.06 -10.1)" fill="#2e328c"/></svg>